<svg xmlns="http://www.w3.org/2000/svg" viewBox="0 0 200 150">
  <rect width="200" height="150" fill="#f3f3f3"/>
  <rect x="70" y="25" width="60" height="100" rx="10" fill="#2f2f2f" stroke="#000" stroke-width="3"/>
  <rect x="78" y="35" width="44" height="42" rx="3" fill="#9fd0ff"/>
  <g fill="#c0c0c0">
    <circle cx="84" cy="90" r="4"/><circle cx="95" cy="90" r="4"/><circle cx="106" cy="90" r="4"/><circle cx="117" cy="90" r="4"/>
    <circle cx="84" cy="101" r="4"/><circle cx="95" cy="101" r="4"/><circle cx="106" cy="101" r="4"/><circle cx="117" cy="101" r="4"/>
    <circle cx="84" cy="112" r="4"/><circle cx="95" cy="112" r="4"/><circle cx="106" cy="112" r="4"/><circle cx="117" cy="112" r="4"/>
  </g>
  <circle cx="146" cy="50" r="6" fill="#4a2a6a"/>
  <circle cx="154" cy="44" r="6" fill="#4a2a6a"/>
  <circle cx="154" cy="56" r="6" fill="#4a2a6a"/>
  <circle cx="162" cy="50" r="6" fill="#4a2a6a"/>
  <path d="M152 38 Q154 30 160 28" fill="none" stroke="#2a8a44" stroke-width="3" stroke-linecap="round"/>
  <text x="100" y="142" text-anchor="middle" font-family="Comic Sans MS, cursive" font-size="10" fill="#003399">Waterloo's tiny keyboard empire</text>
</svg>
