<svg xmlns="http://www.w3.org/2000/svg" viewBox="0 0 200 150">
  <rect width="200" height="150" fill="#fff3fb"/>
  <path d="M60 20 L88 20 L96 60 L96 125 L60 125 Z" fill="#b03dff" stroke="#7a2ab0" stroke-width="3"/>
  <path d="M140 20 L112 20 L104 60 L104 125 L140 125 Z" fill="#b03dff" stroke="#7a2ab0" stroke-width="3"/>
  <g fill="#e8c8ff" stroke="#7a2ab0" stroke-width="1">
    <rect x="88" y="22" width="7" height="5" transform="rotate(12 91 24)"/>
    <rect x="90" y="32" width="7" height="5" transform="rotate(12 93 34)"/>
    <rect x="92" y="42" width="7" height="5" transform="rotate(12 95 44)"/>
    <rect x="105" y="22" width="7" height="5" transform="rotate(-12 109 24)"/>
    <rect x="103" y="32" width="7" height="5" transform="rotate(-12 107 34)"/>
    <rect x="101" y="42" width="7" height="5" transform="rotate(-12 105 44)"/>
    <rect x="93" y="70" width="14" height="5"/>
    <rect x="93" y="79" width="14" height="5"/>
    <rect x="93" y="88" width="14" height="5"/>
    <rect x="93" y="97" width="14" height="5"/>
    <rect x="93" y="106" width="14" height="5"/>
    <rect x="93" y="115" width="14" height="5"/>
  </g>
  <rect x="91" y="50" width="18" height="18" rx="4" fill="#808080" stroke="#4a4a4a" stroke-width="2"/>
  <rect x="96" y="66" width="8" height="16" rx="3" fill="#a0a0a0" stroke="#4a4a4a" stroke-width="2"/>
  <text x="100" y="142" text-anchor="middle" font-family="Comic Sans MS, cursive" font-size="10" fill="#003399">zipped up in St. Catharines</text>
</svg>
