<svg xmlns="http://www.w3.org/2000/svg" viewBox="0 0 200 150">
  <rect width="200" height="150" fill="#d8f0d0"/>
  <rect x="30" y="20" width="18" height="110" fill="#a0713d" stroke="#6b3f1d" stroke-width="3"/>
  <path d="M30 75 L48 75 L39 60 Z M30 90 L48 90 L39 105 Z" fill="#ffe9c9"/>
  <ellipse cx="110" cy="100" rx="38" ry="24" fill="#8b5a2b"/>
  <circle cx="72" cy="84" r="15" fill="#8b5a2b"/>
  <circle cx="68" cy="80" r="2.5" fill="#000"/>
  <rect x="58" y="88" width="5" height="11" fill="#ff8c00" stroke="#000" stroke-width="1"/>
  <rect x="64" y="88" width="5" height="11" fill="#ff8c00" stroke="#000" stroke-width="1"/>
  <path d="M148 108 Q170 104 172 120 Q156 128 144 118 Z" fill="#5c3317"/>
  <g fill="#ffe9c9" stroke="#a0713d" stroke-width="1">
    <path d="M55 55 l8 -5 -2 8 Z"/>
    <path d="M60 115 l9 3 -7 5 Z"/>
  </g>
  <text x="100" y="146" text-anchor="middle" font-family="Comic Sans MS, cursive" font-size="10" fill="#003399">nom nom nom</text>
</svg>
